<mxfile host="app.diagrams.net" modified="2024-02-06T13:07:42.062Z" agent="Mozilla/5.0 (Windows NT 10.0; Win64; x64) AppleWebKit/537.36 (KHTML, like Gecko) Chrome/120.0.0.0 YaBrowser/24.1.0.0 Safari/537.36" version="23.1.1" etag="aCvvkrxQgd3mTkykwH6C" type="github">
  <diagram name="Страница — 1" id="vbixbzX4doHzllJDtg5d">
    <mxGraphModel>
      <root>
        <mxCell id="0" />
        <mxCell id="1" parent="0" />
      </root>
    </mxGraphModel>
  </diagram>
</mxfile>
